# xmcd CD database file
#
# Track frame offsets:
#	150
#	30827
#	52550
#	80745
#	108995
#	132410
#	160595
#	201575
#	205237
#	236910
#	262245
#
# Disc length: 4081 seconds
#
# Revision: 0
# Processed by: cddbd v1.5.1PL2 Copyright (c) Steve Scherf et al.
# Submitted via: CDex 1.51
#
DISCID=950fef0b
DTITLE=Roy Hargrove - Of Kindred Souls
DYEAR=1900
DGENRE=Jazz
TTITLE0=The Left Side
TTITLE1=Everything I Have Is Yours - Dedicated To You
TTITLE2=My Shining Hour
TTITLE3=For Rockelle
TTITLE4=Re-Evaluation
TTITLE5=Of Kindred Souls
TTITLE6=Mothered
TTITLE7=Childhood
TTITLE8=Homelife Revisited
TTITLE9=Love's Lament
TTITLE10=Gentle Wind
EXTD=
EXTT0=
EXTT1=
EXTT2=
EXTT3=
EXTT4=
EXTT5=
EXTT6=
EXTT7=
EXTT8=
EXTT9=
EXTT10=
PLAYORDER=
